<?xml version='1.0' encoding='utf-8'?>
<svg xmlns="http://www.w3.org/2000/svg" viewBox="0 0 124.16 110.91"> <g transform="translate(-283.04 -562.98)"> <path d="m283.04 659.36c9.0776-8.3135 17.62-18.602 25.706-27.282 0.65084 0 6.2224 3.5559 9.2396 4.7509 9.6754 3.8321 20.251 6.0798 28.681 3.7979 3.6109-0.97742 6.7906-2.1417 7.066-2.5873 0.43254-0.69987-28.569-27.339-29.067-26.699l-16.201 18.532c-6.1866-6.3525-12.646-12.447-18.696-18.932l36.863-41.586s20.692 3.0394 30.981 4.6916c0.24184-0.20118-2.2467-3.2756-4.9635-6.0389l-4.9397-5.0242 4.5 0.68649c14.559 2.2211 29.963 12.575 35.837 24.089 4.1933 8.2196 5.9003 15.465 5.7639 26.181-0.10171 7.9912-1.6049 13.504-3.8207 18.327l-2.6134 5.6886 19.828 18.296c-4.4251 5.502-8.9968 10.868-13.917 15.934l-20.292-18.494-4.8755 2.7407c-6.3984 3.5967-14.946 5.8932-21.602 6.079-6.9719 0.19461-13.194-0.22295-24.74-5.4036l-6.4558-2.8965-17.84 19.687-14.441-14.538zm88.732-47.938c0.81009-6.4838 0.11994-11.444-2.6058-18.729-2.3407-6.2561-11.422-18.644-11.422-18.644s-16.535 19.196-16.535 20.073c8.7892 8.7882 18.319 18.062 28.463 25.899 0 0 1.4511-3.4058 2.0999-8.5986z" fill="#f00"/> </g> </svg>